<?xml version="1.0"?>
<svg xmlns="http://www.w3.org/2000/svg" xmlns:xlink="http://www.w3.org/1999/xlink" xmlns:ev="http://www.w3.org/2001/xml-events" version="1.1" baseProfile="full" viewBox="-11.5 -11.5 273 623">
	<g>
		<g>
			<polygon points="67.5 90 63.5 86.75 65.5 85.25 " stroke="#000000" stroke-width="1.000000px" fill="#000000" />
			<path fill="none" d=" M0,0 L67.5,90" stroke="#000000" stroke-width="1.000000px" />
		</g>
		<g>
			<polygon points="72.5 90 70.0746 85.4525 72.5 84.8461 " stroke="#000000" stroke-width="1.000000px" fill="#000000" />
			<path fill="none" d=" M50,0 L72.5,90" stroke="#000000" stroke-width="1.000000px" />
		</g>
		<g>
			<polygon points="165 92 160.315 89.8526 161.877 87.9004 " stroke="#000000" stroke-width="1.000000px" fill="#000000" />
			<path fill="none" d=" M50,0 L165,92" stroke="#000000" stroke-width="1.000000px" />
		</g>
		<g>
			<polygon points="172.5 90 170.075 85.4525 172.5 84.8461 " stroke="#000000" stroke-width="1.000000px" fill="#000000" />
			<path fill="none" d=" M150,0 L172.5,90" stroke="#000000" stroke-width="1.000000px" />
		</g>
		<g>
			<polygon points="80 190 81.118 184.969 83.3541 186.087 " stroke="#000000" stroke-width="1.000000px" fill="#000000" />
			<path fill="none" d=" M125,100 L80,190" stroke="#000000" stroke-width="1.000000px" />
		</g>
		<g>
			<polygon points="85 190 87.6517 185.581 89.4194 187.348 " stroke="#000000" stroke-width="1.000000px" fill="#000000" />
			<path fill="none" d=" M175,100 L85,190" stroke="#000000" stroke-width="1.000000px" />
		</g>
		<g>
			<polygon points="130 190 131.118 184.969 133.354 186.087 " stroke="#000000" stroke-width="1.000000px" fill="#000000" />
			<path fill="none" d=" M175,100 L130,190" stroke="#000000" stroke-width="1.000000px" />
		</g>
		<g>
			<polygon points="25 290 23.75 285 26.25 285 " stroke="#000000" stroke-width="1.000000px" fill="#000000" />
			<path fill="none" d=" M25,200 L25,290" stroke="#000000" stroke-width="1.000000px" />
		</g>
		<g>
			<polygon points="30 290 31.118 284.969 33.3541 286.087 " stroke="#000000" stroke-width="1.000000px" fill="#000000" />
			<path fill="none" d=" M75,200 L30,290" stroke="#000000" stroke-width="1.000000px" />
		</g>
		<g>
			<polygon points="75 290 73.75 285 76.25 285 " stroke="#000000" stroke-width="1.000000px" fill="#000000" />
			<path fill="none" d=" M75,200 L75,290" stroke="#000000" stroke-width="1.000000px" />
		</g>
		<g>
			<polygon points="120 290 116.646 286.087 118.882 284.969 " stroke="#000000" stroke-width="1.000000px" fill="#000000" />
			<path fill="none" d=" M75,200 L120,290" stroke="#000000" stroke-width="1.000000px" />
		</g>
		<g>
			<polygon points="125 290 123.75 285 126.25 285 " stroke="#000000" stroke-width="1.000000px" fill="#000000" />
			<path fill="none" d=" M125,200 L125,290" stroke="#000000" stroke-width="1.000000px" />
		</g>
		<g>
			<polygon points="175 290 173.75 285 176.25 285 " stroke="#000000" stroke-width="1.000000px" fill="#000000" />
			<path fill="none" d=" M175,200 L175,290" stroke="#000000" stroke-width="1.000000px" />
		</g>
		<g>
			<polygon points="70 390 66.6459 386.087 68.882 384.969 " stroke="#000000" stroke-width="1.000000px" fill="#000000" />
			<path fill="none" d=" M25,300 L70,390" stroke="#000000" stroke-width="1.000000px" />
		</g>
		<g>
			<polygon points="97.5 490 95.0746 485.452 97.5 484.846 " stroke="#000000" stroke-width="1.000000px" fill="#000000" />
			<path fill="none" d=" M75,400 L97.5,490" stroke="#000000" stroke-width="1.000000px" />
		</g>
		<g>
			<polygon points="102.5 490 102.5 484.846 104.925 485.452 " stroke="#000000" stroke-width="1.000000px" fill="#000000" />
			<path fill="none" d=" M125,400 L102.5,490" stroke="#000000" stroke-width="1.000000px" />
		</g>
		<g>
			<polygon points="147.5 490 145.075 485.452 147.5 484.846 " stroke="#000000" stroke-width="1.000000px" fill="#000000" />
			<path fill="none" d=" M125,400 L147.5,490" stroke="#000000" stroke-width="1.000000px" />
		</g>
		<g>
			<polygon points="32.5 590 34.5 585.25 36.5 586.75 " stroke="#000000" stroke-width="1.000000px" fill="#000000" />
			<path fill="none" d=" M100,500 L32.5,590" stroke="#000000" stroke-width="1.000000px" />
		</g>
		<g>
			<polygon points="77.5 590 77.5 584.846 79.9254 585.452 " stroke="#000000" stroke-width="1.000000px" fill="#000000" />
			<path fill="none" d=" M100,500 L77.5,590" stroke="#000000" stroke-width="1.000000px" />
		</g>
		<g>
			<polygon points="82.5 590 84.5 585.25 86.5 586.75 " stroke="#000000" stroke-width="1.000000px" fill="#000000" />
			<path fill="none" d=" M150,500 L82.5,590" stroke="#000000" stroke-width="1.000000px" />
		</g>
		<g>
			<polygon points="172.5 590 170.075 585.452 172.5 584.846 " stroke="#000000" stroke-width="1.000000px" fill="#000000" />
			<path fill="none" d=" M150,500 L172.5,590" stroke="#000000" stroke-width="1.000000px" />
		</g>
		<g>
			<polygon points="217.5 590 213.5 586.75 215.5 585.25 " stroke="#000000" stroke-width="1.000000px" fill="#000000" />
			<path fill="none" d=" M150,500 L217.5,590" stroke="#000000" stroke-width="1.000000px" />
		</g>
		<g>
			<polygon points="182.5 90 184.5 85.25 186.5 86.75 " stroke="#000000" stroke-width="1.000000px" fill="#000000" />
			<path fill="none" d=" M250,0 L182.5,90" stroke="#000000" stroke-width="1.000000px" />
		</g>
		<g>
			<polygon points="167.5 90 163.5 86.75 165.5 85.25 " stroke="#000000" stroke-width="1.000000px" fill="#000000" />
			<path fill="none" d=" M100,0 L167.5,90" stroke="#000000" stroke-width="1.000000px" />
		</g>
		<g>
			<polygon points="177.5 90 177.5 84.8461 179.925 85.4525 " stroke="#000000" stroke-width="1.000000px" fill="#000000" />
			<path fill="none" d=" M200,0 L177.5,90" stroke="#000000" stroke-width="1.000000px" />
		</g>
		<g>
			<polygon points="180 390 181.118 384.969 183.354 386.087 " stroke="#000000" stroke-width="1.000000px" fill="#000000" />
			<path fill="none" d=" M225,300 L180,390" stroke="#000000" stroke-width="1.000000px" />
		</g>
		<g>
			<polygon points="135 390 137.652 385.581 139.419 387.348 " stroke="#000000" stroke-width="1.000000px" fill="#000000" />
			<path fill="none" d=" M225,300 L135,390" stroke="#000000" stroke-width="1.000000px" />
		</g>
		<g>
			<polygon points="225 290 223.75 285 226.25 285 " stroke="#000000" stroke-width="1.000000px" fill="#000000" />
			<path fill="none" d=" M225,200 L225,290" stroke="#000000" stroke-width="1.000000px" />
		</g>
		<g>
			<polygon points="127.5 590 127.5 584.846 129.925 585.452 " stroke="#000000" stroke-width="1.000000px" fill="#000000" />
			<path fill="none" d=" M150,500 L127.5,590" stroke="#000000" stroke-width="1.000000px" />
		</g>
		<g>
			<polygon points="175 190 173.75 185 176.25 185 " stroke="#000000" stroke-width="1.000000px" fill="#000000" />
			<path fill="none" d=" M175,100 L175,190" stroke="#000000" stroke-width="1.000000px" />
		</g>
	</g>
	<g>
		<rect x="-10" y="-10" width="20" height="20" fill="#FFFFFF" stroke-width="1.000000px" stroke="#000000" />
		<text x="0" y="0" text-anchor="middle" dominant-baseline="middle" font-family="Arial" font-size="10" fill="#000000">0</text>
	</g>
	<g>
		<rect x="65" y="90" width="20" height="20" fill="#FFFFFF" stroke-width="1.000000px" stroke="#000000" />
		<text x="75" y="100" text-anchor="middle" dominant-baseline="middle" font-family="Arial" font-size="10" fill="#000000">1</text>
	</g>
	<g>
		<rect x="15" y="190" width="20" height="20" fill="#FFFFFF" stroke-width="1.000000px" stroke="#000000" />
		<text x="25" y="200" text-anchor="middle" dominant-baseline="middle" font-family="Arial" font-size="10" fill="#000000">2</text>
	</g>
	<g>
		<rect x="15" y="290" width="20" height="20" fill="#FFFFFF" stroke-width="1.000000px" stroke="#000000" />
		<text x="25" y="300" text-anchor="middle" dominant-baseline="middle" font-family="Arial" font-size="10" fill="#000000">3</text>
	</g>
	<g>
		<rect x="65" y="390" width="20" height="20" fill="#FFFFFF" stroke-width="1.000000px" stroke="#000000" />
		<text x="75" y="400" text-anchor="middle" dominant-baseline="middle" font-family="Arial" font-size="10" fill="#000000">4</text>
	</g>
	<g>
		<rect x="90" y="490" width="20" height="20" fill="#FFFFFF" stroke-width="1.000000px" stroke="#000000" />
		<text x="100" y="500" text-anchor="middle" dominant-baseline="middle" font-family="Arial" font-size="10" fill="#000000">5</text>
	</g>
	<g>
		<rect x="15" y="590" width="20" height="20" fill="#FFFFFF" stroke-width="1.000000px" stroke="#000000" />
		<text x="25" y="600" text-anchor="middle" dominant-baseline="middle" font-family="Arial" font-size="10" fill="#000000">6</text>
	</g>
	<g>
		<rect x="65" y="590" width="20" height="20" fill="#FFFFFF" stroke-width="1.000000px" stroke="#000000" />
		<text x="75" y="600" text-anchor="middle" dominant-baseline="middle" font-family="Arial" font-size="10" fill="#000000">7</text>
	</g>
	<g>
		<rect x="115" y="590" width="20" height="20" fill="#FFFFFF" stroke-width="1.000000px" stroke="#000000" />
		<text x="125" y="600" text-anchor="middle" dominant-baseline="middle" font-family="Arial" font-size="10" fill="#000000">8</text>
	</g>
	<g>
		<rect x="65" y="290" width="20" height="20" fill="#FFFFFF" stroke-width="1.000000px" stroke="#000000" />
		<text x="75" y="300" text-anchor="middle" dominant-baseline="middle" font-family="Arial" font-size="10" fill="#000000">9</text>
	</g>
	<g>
		<rect x="115" y="290" width="20" height="20" fill="#FFFFFF" stroke-width="1.000000px" stroke="#000000" />
		<text x="125" y="300" text-anchor="middle" dominant-baseline="middle" font-family="Arial" font-size="10" fill="#000000">10</text>
	</g>
	<g>
		<rect x="40" y="-10" width="20" height="20" fill="#FFFFFF" stroke-width="1.000000px" stroke="#000000" />
		<text x="50" y="0" text-anchor="middle" dominant-baseline="middle" font-family="Arial" font-size="10" fill="#000000">11</text>
	</g>
	<g>
		<rect x="115" y="390" width="20" height="20" fill="#FFFFFF" stroke-width="1.000000px" stroke="#000000" />
		<text x="125" y="400" text-anchor="middle" dominant-baseline="middle" font-family="Arial" font-size="10" fill="#000000">12</text>
	</g>
	<g>
		<rect x="90" y="-10" width="20" height="20" fill="#FFFFFF" stroke-width="1.000000px" stroke="#000000" />
		<text x="100" y="0" text-anchor="middle" dominant-baseline="middle" font-family="Arial" font-size="10" fill="#000000">13</text>
	</g>
	<g>
		<rect x="65" y="190" width="20" height="20" fill="#FFFFFF" stroke-width="1.000000px" stroke="#000000" />
		<text x="75" y="200" text-anchor="middle" dominant-baseline="middle" font-family="Arial" font-size="10" fill="#000000">14</text>
	</g>
	<g>
		<rect x="165" y="590" width="20" height="20" fill="#FFFFFF" stroke-width="1.000000px" stroke="#000000" />
		<text x="175" y="600" text-anchor="middle" dominant-baseline="middle" font-family="Arial" font-size="10" fill="#000000">15</text>
	</g>
	<g>
		<rect x="115" y="90" width="20" height="20" fill="#FFFFFF" stroke-width="1.000000px" stroke="#000000" />
		<text x="125" y="100" text-anchor="middle" dominant-baseline="middle" font-family="Arial" font-size="10" fill="#000000">16</text>
	</g>
	<g>
		<rect x="215" y="590" width="20" height="20" fill="#FFFFFF" stroke-width="1.000000px" stroke="#000000" />
		<text x="225" y="600" text-anchor="middle" dominant-baseline="middle" font-family="Arial" font-size="10" fill="#000000">17</text>
	</g>
	<g>
		<rect x="140" y="490" width="20" height="20" fill="#FFFFFF" stroke-width="1.000000px" stroke="#000000" />
		<text x="150" y="500" text-anchor="middle" dominant-baseline="middle" font-family="Arial" font-size="10" fill="#000000">18</text>
	</g>
	<g>
		<rect x="165" y="390" width="20" height="20" fill="#FFFFFF" stroke-width="1.000000px" stroke="#000000" />
		<text x="175" y="400" text-anchor="middle" dominant-baseline="middle" font-family="Arial" font-size="10" fill="#000000">19</text>
	</g>
	<g>
		<rect x="165" y="90" width="20" height="20" fill="#FFFFFF" stroke-width="1.000000px" stroke="#000000" />
		<text x="175" y="100" text-anchor="middle" dominant-baseline="middle" font-family="Arial" font-size="10" fill="#000000">20</text>
	</g>
	<g>
		<rect x="140" y="-10" width="20" height="20" fill="#FFFFFF" stroke-width="1.000000px" stroke="#000000" />
		<text x="150" y="0" text-anchor="middle" dominant-baseline="middle" font-family="Arial" font-size="10" fill="#000000">21</text>
	</g>
	<g>
		<rect x="165" y="290" width="20" height="20" fill="#FFFFFF" stroke-width="1.000000px" stroke="#000000" />
		<text x="175" y="300" text-anchor="middle" dominant-baseline="middle" font-family="Arial" font-size="10" fill="#000000">22</text>
	</g>
	<g>
		<rect x="115" y="190" width="20" height="20" fill="#FFFFFF" stroke-width="1.000000px" stroke="#000000" />
		<text x="125" y="200" text-anchor="middle" dominant-baseline="middle" font-family="Arial" font-size="10" fill="#000000">23</text>
	</g>
	<g>
		<rect x="165" y="190" width="20" height="20" fill="#FFFFFF" stroke-width="1.000000px" stroke="#000000" />
		<text x="175" y="200" text-anchor="middle" dominant-baseline="middle" font-family="Arial" font-size="10" fill="#000000">24</text>
	</g>
	<g>
		<rect x="215" y="290" width="20" height="20" fill="#FFFFFF" stroke-width="1.000000px" stroke="#000000" />
		<text x="225" y="300" text-anchor="middle" dominant-baseline="middle" font-family="Arial" font-size="10" fill="#000000">25</text>
	</g>
	<g>
		<rect x="215" y="190" width="20" height="20" fill="#FFFFFF" stroke-width="1.000000px" stroke="#000000" />
		<text x="225" y="200" text-anchor="middle" dominant-baseline="middle" font-family="Arial" font-size="10" fill="#000000">26</text>
	</g>
	<g>
		<rect x="190" y="-10" width="20" height="20" fill="#FFFFFF" stroke-width="1.000000px" stroke="#000000" />
		<text x="200" y="0" text-anchor="middle" dominant-baseline="middle" font-family="Arial" font-size="10" fill="#000000">27</text>
	</g>
	<g>
		<rect x="240" y="-10" width="20" height="20" fill="#FFFFFF" stroke-width="1.000000px" stroke="#000000" />
		<text x="250" y="0" text-anchor="middle" dominant-baseline="middle" font-family="Arial" font-size="10" fill="#000000">28</text>
	</g>
</svg>
