<?xml version="1.0"?>
<svg xmlns="http://www.w3.org/2000/svg" xmlns:xlink="http://www.w3.org/1999/xlink" xmlns:ev="http://www.w3.org/2001/xml-events" version="1.1" baseProfile="full" viewBox="-11.5 -11.5 223 323">
	<g>
		<g>
			<polygon points="32.5 90 34.5 85.25 36.5 86.75 " stroke="#000000" stroke-width="1.000000px" fill="#000000" />
			<path fill="none" d=" M100,0 L32.5,90" stroke="#000000" stroke-width="1.000000px" />
		</g>
		<g>
			<polygon points="122.5 90 120.075 85.4525 122.5 84.8461 " stroke="#000000" stroke-width="1.000000px" fill="#000000" />
			<path fill="none" d=" M100,0 L122.5,90" stroke="#000000" stroke-width="1.000000px" />
		</g>
		<g>
			<polygon points="167.5 90 163.5 86.75 165.5 85.25 " stroke="#000000" stroke-width="1.000000px" fill="#000000" />
			<path fill="none" d=" M100,0 L167.5,90" stroke="#000000" stroke-width="1.000000px" />
		</g>
		<g>
			<polygon points="2.5 190 2.5 184.846 4.92536 185.452 " stroke="#000000" stroke-width="1.000000px" fill="#000000" />
			<path fill="none" d=" M25,100 L2.5,190" stroke="#000000" stroke-width="1.000000px" />
		</g>
		<g>
			<polygon points="47.5 190 45.0746 185.452 47.5 184.846 " stroke="#000000" stroke-width="1.000000px" fill="#000000" />
			<path fill="none" d=" M25,100 L47.5,190" stroke="#000000" stroke-width="1.000000px" />
		</g>
		<g>
			<polygon points="97.5 190 95.0746 185.452 97.5 184.846 " stroke="#000000" stroke-width="1.000000px" fill="#000000" />
			<path fill="none" d=" M75,100 L97.5,190" stroke="#000000" stroke-width="1.000000px" />
		</g>
		<g>
			<polygon points="142.5 190 138.5 186.75 140.5 185.25 " stroke="#000000" stroke-width="1.000000px" fill="#000000" />
			<path fill="none" d=" M75,100 L142.5,190" stroke="#000000" stroke-width="1.000000px" />
		</g>
		<g>
			<polygon points="190 192 185.315 189.853 186.877 187.9 " stroke="#000000" stroke-width="1.000000px" fill="#000000" />
			<path fill="none" d=" M75,100 L190,192" stroke="#000000" stroke-width="1.000000px" />
		</g>
		<g>
			<polygon points="197.5 190 195.075 185.452 197.5 184.846 " stroke="#000000" stroke-width="1.000000px" fill="#000000" />
			<path fill="none" d=" M175,100 L197.5,190" stroke="#000000" stroke-width="1.000000px" />
		</g>
		<g>
			<polygon points="50 290 48.75 285 51.25 285 " stroke="#000000" stroke-width="1.000000px" fill="#000000" />
			<path fill="none" d=" M50,200 L50,290" stroke="#000000" stroke-width="1.000000px" />
		</g>
		<g>
			<polygon points="95 290 91.6459 286.087 93.882 284.969 " stroke="#000000" stroke-width="1.000000px" fill="#000000" />
			<path fill="none" d=" M50,200 L95,290" stroke="#000000" stroke-width="1.000000px" />
		</g>
		<g>
			<polygon points="100 290 98.75 285 101.25 285 " stroke="#000000" stroke-width="1.000000px" fill="#000000" />
			<path fill="none" d=" M100,200 L100,290" stroke="#000000" stroke-width="1.000000px" />
		</g>
		<g>
			<polygon points="145 290 141.646 286.087 143.882 284.969 " stroke="#000000" stroke-width="1.000000px" fill="#000000" />
			<path fill="none" d=" M100,200 L145,290" stroke="#000000" stroke-width="1.000000px" />
		</g>
		<g>
			<polygon points="155 290 156.118 284.969 158.354 286.087 " stroke="#000000" stroke-width="1.000000px" fill="#000000" />
			<path fill="none" d=" M200,200 L155,290" stroke="#000000" stroke-width="1.000000px" />
		</g>
	</g>
	<g>
		<rect x="90" y="-10" width="20" height="20" fill="#FFFFFF" stroke-width="1.000000px" stroke="#000000" />
		<text x="100" y="0" text-anchor="middle" dominant-baseline="middle" font-family="Arial" font-size="10" fill="#000000">0</text>
	</g>
	<g>
		<rect x="15" y="90" width="20" height="20" fill="#FFFFFF" stroke-width="1.000000px" stroke="#000000" />
		<text x="25" y="100" text-anchor="middle" dominant-baseline="middle" font-family="Arial" font-size="10" fill="#000000">1</text>
	</g>
	<g>
		<rect x="-10" y="190" width="20" height="20" fill="#FFFFFF" stroke-width="1.000000px" stroke="#000000" />
		<text x="0" y="200" text-anchor="middle" dominant-baseline="middle" font-family="Arial" font-size="10" fill="#000000">2</text>
	</g>
	<g>
		<rect x="40" y="290" width="20" height="20" fill="#FFFFFF" stroke-width="1.000000px" stroke="#000000" />
		<text x="50" y="300" text-anchor="middle" dominant-baseline="middle" font-family="Arial" font-size="10" fill="#000000">3</text>
	</g>
	<g>
		<rect x="65" y="90" width="20" height="20" fill="#FFFFFF" stroke-width="1.000000px" stroke="#000000" />
		<text x="75" y="100" text-anchor="middle" dominant-baseline="middle" font-family="Arial" font-size="10" fill="#000000">4</text>
	</g>
	<g>
		<rect x="90" y="290" width="20" height="20" fill="#FFFFFF" stroke-width="1.000000px" stroke="#000000" />
		<text x="100" y="300" text-anchor="middle" dominant-baseline="middle" font-family="Arial" font-size="10" fill="#000000">5</text>
	</g>
	<g>
		<rect x="115" y="90" width="20" height="20" fill="#FFFFFF" stroke-width="1.000000px" stroke="#000000" />
		<text x="125" y="100" text-anchor="middle" dominant-baseline="middle" font-family="Arial" font-size="10" fill="#000000">6</text>
	</g>
	<g>
		<rect x="40" y="190" width="20" height="20" fill="#FFFFFF" stroke-width="1.000000px" stroke="#000000" />
		<text x="50" y="200" text-anchor="middle" dominant-baseline="middle" font-family="Arial" font-size="10" fill="#000000">7</text>
	</g>
	<g>
		<rect x="90" y="190" width="20" height="20" fill="#FFFFFF" stroke-width="1.000000px" stroke="#000000" />
		<text x="100" y="200" text-anchor="middle" dominant-baseline="middle" font-family="Arial" font-size="10" fill="#000000">8</text>
	</g>
	<g>
		<rect x="140" y="190" width="20" height="20" fill="#FFFFFF" stroke-width="1.000000px" stroke="#000000" />
		<text x="150" y="200" text-anchor="middle" dominant-baseline="middle" font-family="Arial" font-size="10" fill="#000000">9</text>
	</g>
	<g>
		<rect x="140" y="290" width="20" height="20" fill="#FFFFFF" stroke-width="1.000000px" stroke="#000000" />
		<text x="150" y="300" text-anchor="middle" dominant-baseline="middle" font-family="Arial" font-size="10" fill="#000000">10</text>
	</g>
	<g>
		<rect x="190" y="190" width="20" height="20" fill="#FFFFFF" stroke-width="1.000000px" stroke="#000000" />
		<text x="200" y="200" text-anchor="middle" dominant-baseline="middle" font-family="Arial" font-size="10" fill="#000000">11</text>
	</g>
	<g>
		<rect x="165" y="90" width="20" height="20" fill="#FFFFFF" stroke-width="1.000000px" stroke="#000000" />
		<text x="175" y="100" text-anchor="middle" dominant-baseline="middle" font-family="Arial" font-size="10" fill="#000000">12</text>
	</g>
</svg>
