<?xml version="1.0" encoding="UTF-8"?>
<svg xmlns="http://www.w3.org/2000/svg" xmlns:xlink="http://www.w3.org/1999/xlink" width="579" height="324" viewBox="0 0 579 324">
<path fill-rule="evenodd" fill="rgb(0%, 0%, 100%)" fill-opacity="0.3" d="M 57 217 C 33 187.667969 33 134.332031 46.332031 107.667969 C 59.667969 81 86.332031 81 97 73 C 107.667969 65 102.332031 49 129 38.332031 C 155.667969 27.667969 214.332031 22.332031 259.667969 22.332031 C 305 22.332031 337 27.667969 358.332031 43.667969 C 379.667969 59.667969 390.332031 86.332031 398.332031 99.667969 C 406.332031 113 411.667969 113 422.332031 110.332031 C 433 107.667969 449 102.332031 459.667969 107.667969 C 470.332031 113 475.667969 129 481 145 C 486.332031 161 491.667969 177 505 190.332031 C 518.332031 203.667969 539.667969 214.332031 542.332031 225 C 545 235.667969 529 246.332031 515.667969 243.667969 C 502.332031 241 491.667969 225 486.332031 222.332031 C 481 219.667969 481 230.332031 473 230.332031 C 465 230.332031 449 219.667969 441 219.667969 C 433 219.667969 433 230.332031 427.667969 227.667969 C 422.332031 225 411.667969 209 401 209 C 390.332031 209 379.667969 225 366.332031 230.332031 C 353 235.667969 337 230.332031 331.667969 217 C 326.332031 203.667969 331.667969 182.332031 329 158.332031 C 326.332031 134.332031 315.667969 107.667969 305 89 C 294.332031 70.332031 283.667969 59.667969 270.332031 54.332031 C 257 49 241 49 222.332031 57 C 203.667969 65 182.332031 81 171.667969 99.667969 C 161 118.332031 161 139.667969 163.667969 158.332031 C 166.332031 177 171.667969 193 174.332031 203.667969 C 177 214.332031 177 219.667969 177 227.667969 C 177 235.667969 177 246.332031 153 249 C 129 251.667969 81 246.332031 57 217 Z M 57 217 "/>
<path fill-rule="evenodd" fill="rgb(0%, 0%, 0%)" fill-opacity="1" d="M 242.800781 321 C 242.800781 318.601562 239.199219 318.601562 239.199219 321 C 239.199219 323.398438 242.800781 323.398438 242.800781 321 Z M 242.800781 321 "/>
<path fill-rule="evenodd" fill="rgb(0%, 0%, 0%)" fill-opacity="1" d="M 162.800781 225 C 162.800781 222.601562 159.199219 222.601562 159.199219 225 C 159.199219 227.398438 162.800781 227.398438 162.800781 225 Z M 162.800781 225 "/>
<path fill-rule="evenodd" fill="rgb(0%, 0%, 0%)" fill-opacity="1" d="M 194.800781 225 C 194.800781 222.601562 191.199219 222.601562 191.199219 225 C 191.199219 227.398438 194.800781 227.398438 194.800781 225 Z M 194.800781 225 "/>
<path fill-rule="evenodd" fill="rgb(0%, 0%, 0%)" fill-opacity="1" d="M 226.800781 225 C 226.800781 222.601562 223.199219 222.601562 223.199219 225 C 223.199219 227.398438 226.800781 227.398438 226.800781 225 Z M 226.800781 225 "/>
<path fill-rule="evenodd" fill="rgb(0%, 0%, 0%)" fill-opacity="1" d="M 354.800781 225 C 354.800781 222.601562 351.199219 222.601562 351.199219 225 C 351.199219 227.398438 354.800781 227.398438 354.800781 225 Z M 354.800781 225 "/>
<path fill-rule="evenodd" fill="rgb(0%, 0%, 0%)" fill-opacity="1" d="M 370.800781 225 C 370.800781 222.601562 367.199219 222.601562 367.199219 225 C 367.199219 227.398438 370.800781 227.398438 370.800781 225 Z M 370.800781 225 "/>
<path fill-rule="evenodd" fill="rgb(0%, 0%, 0%)" fill-opacity="1" d="M 418.800781 225 C 418.800781 222.601562 415.199219 222.601562 415.199219 225 C 415.199219 227.398438 418.800781 227.398438 418.800781 225 Z M 418.800781 225 "/>
<path fill-rule="evenodd" fill="rgb(0%, 0%, 0%)" fill-opacity="1" d="M 466.800781 225 C 466.800781 222.601562 463.199219 222.601562 463.199219 225 C 463.199219 227.398438 466.800781 227.398438 466.800781 225 Z M 466.800781 225 "/>
<path fill-rule="evenodd" fill="rgb(0%, 0%, 0%)" fill-opacity="1" d="M 290.800781 225 C 290.800781 222.601562 287.199219 222.601562 287.199219 225 C 287.199219 227.398438 290.800781 227.398438 290.800781 225 Z M 290.800781 225 "/>
<path fill-rule="evenodd" fill="rgb(0%, 0%, 0%)" fill-opacity="1" d="M 306.800781 225 C 306.800781 222.601562 303.199219 222.601562 303.199219 225 C 303.199219 227.398438 306.800781 227.398438 306.800781 225 Z M 306.800781 225 "/>
<path fill-rule="evenodd" fill="rgb(0%, 0%, 0%)" fill-opacity="1" d="M 274.800781 225 C 274.800781 222.601562 271.199219 222.601562 271.199219 225 C 271.199219 227.398438 274.800781 227.398438 274.800781 225 Z M 274.800781 225 "/>
<path fill-rule="evenodd" fill="rgb(0%, 0%, 0%)" fill-opacity="1" d="M 338.800781 225 C 338.800781 222.601562 335.199219 222.601562 335.199219 225 C 335.199219 227.398438 338.800781 227.398438 338.800781 225 Z M 338.800781 225 "/>
<path fill-rule="evenodd" fill="rgb(0%, 0%, 0%)" fill-opacity="1" d="M 66.800781 225 C 66.800781 222.601562 63.199219 222.601562 63.199219 225 C 63.199219 227.398438 66.800781 227.398438 66.800781 225 Z M 66.800781 225 "/>
<path fill-rule="evenodd" fill="rgb(0%, 0%, 0%)" fill-opacity="1" d="M 114.800781 225 C 114.800781 222.601562 111.199219 222.601562 111.199219 225 C 111.199219 227.398438 114.800781 227.398438 114.800781 225 Z M 114.800781 225 "/>
<path fill-rule="evenodd" fill="rgb(0%, 0%, 0%)" fill-opacity="1" d="M 530.800781 225 C 530.800781 222.601562 527.199219 222.601562 527.199219 225 C 527.199219 227.398438 530.800781 227.398438 530.800781 225 Z M 530.800781 225 "/>
<path fill="none" stroke-width="0.4" stroke-linecap="butt" stroke-linejoin="round" stroke="rgb(0%, 0%, 0%)" stroke-opacity="1" stroke-miterlimit="10" d="M 256 448 L 176 544 " transform="matrix(1, 0, 0, -1, -15, 769)"/>
<path fill="none" stroke-width="0.4" stroke-linecap="butt" stroke-linejoin="round" stroke="rgb(0%, 0%, 0%)" stroke-opacity="1" stroke-miterlimit="10" d="M 256 448 L 240 544 " transform="matrix(1, 0, 0, -1, -15, 769)"/>
<path fill="none" stroke-width="0.4" stroke-linecap="butt" stroke-linejoin="round" stroke="rgb(0%, 0%, 0%)" stroke-opacity="1" stroke-miterlimit="10" d="M 256 448 L 288 544 " transform="matrix(1, 0, 0, -1, -15, 769)"/>
<path fill="none" stroke-width="0.4" stroke-linecap="butt" stroke-linejoin="round" stroke="rgb(0%, 0%, 0%)" stroke-opacity="1" stroke-miterlimit="10" d="M 256 448 L 352 544 " transform="matrix(1, 0, 0, -1, -15, 769)"/>
<path fill="none" stroke-width="0.4" stroke-linecap="butt" stroke-linejoin="round" stroke="rgb(0%, 0%, 0%)" stroke-opacity="1" stroke-miterlimit="10" d="M 256 448 L 432 544 " transform="matrix(1, 0, 0, -1, -15, 769)"/>
<path fill-rule="evenodd" fill="rgb(0%, 0%, 0%)" fill-opacity="1" d="M 242.800781 161 C 242.800781 158.601562 239.199219 158.601562 239.199219 161 C 239.199219 163.398438 242.800781 163.398438 242.800781 161 Z M 242.800781 161 "/>
<path fill-rule="evenodd" fill="rgb(0%, 0%, 0%)" fill-opacity="1" d="M 210.800781 161 C 210.800781 158.601562 207.199219 158.601562 207.199219 161 C 207.199219 163.398438 210.800781 163.398438 210.800781 161 Z M 210.800781 161 "/>
<path fill-rule="evenodd" fill="rgb(0%, 0%, 0%)" fill-opacity="1" d="M 178.800781 161 C 178.800781 158.601562 175.199219 158.601562 175.199219 161 C 175.199219 163.398438 178.800781 163.398438 178.800781 161 Z M 178.800781 161 "/>
<path fill="none" stroke-width="0.4" stroke-linecap="butt" stroke-linejoin="round" stroke="rgb(0%, 0%, 0%)" stroke-opacity="1" stroke-miterlimit="10" d="M 240 544 L 256 608 " transform="matrix(1, 0, 0, -1, -15, 769)"/>
<path fill="none" stroke-width="0.4" stroke-linecap="butt" stroke-linejoin="round" stroke="rgb(0%, 0%, 0%)" stroke-opacity="1" stroke-miterlimit="10" d="M 240 544 L 224 608 " transform="matrix(1, 0, 0, -1, -15, 769)"/>
<path fill-rule="evenodd" fill="rgb(0%, 0%, 0%)" fill-opacity="1" d="M 210.800781 113 C 210.800781 110.601562 207.199219 110.601562 207.199219 113 C 207.199219 115.398438 210.800781 115.398438 210.800781 113 Z M 210.800781 113 "/>
<path fill-rule="evenodd" fill="rgb(0%, 0%, 0%)" fill-opacity="1" d="M 258.800781 113 C 258.800781 110.601562 255.199219 110.601562 255.199219 113 C 255.199219 115.398438 258.800781 115.398438 258.800781 113 Z M 258.800781 113 "/>
<path fill="none" stroke-width="0.4" stroke-linecap="butt" stroke-linejoin="round" stroke="rgb(0%, 0%, 0%)" stroke-opacity="1" stroke-miterlimit="10" d="M 224 608 L 224 656 " transform="matrix(1, 0, 0, -1, -15, 769)"/>
<path fill="none" stroke-width="0.4" stroke-linecap="butt" stroke-linejoin="round" stroke="rgb(0%, 0%, 0%)" stroke-opacity="1" stroke-miterlimit="10" d="M 256 608 L 272 656 " transform="matrix(1, 0, 0, -1, -15, 769)"/>
<path fill="none" stroke-width="0.4" stroke-linecap="butt" stroke-linejoin="round" stroke="rgb(0%, 0%, 0%)" stroke-opacity="1" stroke-miterlimit="10" d="M 224 608 L 272 656 " transform="matrix(1, 0, 0, -1, -15, 769)"/>
<path fill="none" stroke-width="0.4" stroke-linecap="butt" stroke-linejoin="round" stroke="rgb(0%, 0%, 0%)" stroke-opacity="1" stroke-miterlimit="10" d="M 224 656 L 192 608 " transform="matrix(1, 0, 0, -1, -15, 769)"/>
<path fill="none" stroke-width="0.4" stroke-linecap="butt" stroke-linejoin="round" stroke="rgb(0%, 0%, 0%)" stroke-opacity="1" stroke-miterlimit="10" d="M 288 544 L 304 608 " transform="matrix(1, 0, 0, -1, -15, 769)"/>
<path fill="none" stroke-width="0.4" stroke-linecap="butt" stroke-linejoin="round" stroke="rgb(0%, 0%, 0%)" stroke-opacity="1" stroke-miterlimit="10" d="M 304 608 L 272 656 " transform="matrix(1, 0, 0, -1, -15, 769)"/>
<path fill-rule="evenodd" fill="rgb(0%, 0%, 0%)" fill-opacity="1" d="M 290.800781 161 C 290.800781 158.601562 287.199219 158.601562 287.199219 161 C 287.199219 163.398438 290.800781 163.398438 290.800781 161 Z M 290.800781 161 "/>
<path fill="none" stroke-width="0.4" stroke-linecap="butt" stroke-linejoin="round" stroke="rgb(0%, 0%, 0%)" stroke-opacity="1" stroke-miterlimit="10" d="M 304 544 L 304 608 " transform="matrix(1, 0, 0, -1, -15, 769)"/>
<path fill="none" stroke-width="0.4" stroke-linecap="butt" stroke-linejoin="round" stroke="rgb(0%, 0%, 0%)" stroke-opacity="1" stroke-miterlimit="10" d="M 320 544 L 336 608 " transform="matrix(1, 0, 0, -1, -15, 769)"/>
<path fill="none" stroke-width="0.4" stroke-linecap="butt" stroke-linejoin="round" stroke="rgb(0%, 0%, 0%)" stroke-opacity="1" stroke-miterlimit="10" d="M 336 608 L 272 656 " transform="matrix(1, 0, 0, -1, -15, 769)"/>
<path fill-rule="evenodd" fill="rgb(0%, 0%, 0%)" fill-opacity="1" d="M 322.800781 161 C 322.800781 158.601562 319.199219 158.601562 319.199219 161 C 319.199219 163.398438 322.800781 163.398438 322.800781 161 Z M 322.800781 161 "/>
<path fill="none" stroke-width="0.4" stroke-linecap="butt" stroke-linejoin="round" stroke="rgb(0%, 0%, 0%)" stroke-opacity="1" stroke-miterlimit="10" d="M 224 608 L 208 544 " transform="matrix(1, 0, 0, -1, -15, 769)"/>
<path fill="none" stroke-width="0.4" stroke-linecap="butt" stroke-linejoin="round" stroke="rgb(0%, 0%, 0%)" stroke-opacity="1" stroke-miterlimit="10" d="M 352 544 L 384 608 " transform="matrix(1, 0, 0, -1, -15, 769)"/>
<path fill="none" stroke-width="0.4" stroke-linecap="butt" stroke-linejoin="round" stroke="rgb(0%, 0%, 0%)" stroke-opacity="1" stroke-miterlimit="10" d="M 384 608 L 384 656 " transform="matrix(1, 0, 0, -1, -15, 769)"/>
<path fill="none" stroke-width="0.4" stroke-linecap="butt" stroke-linejoin="round" stroke="rgb(0%, 0%, 0%)" stroke-opacity="1" stroke-miterlimit="10" d="M 128 544 L 128 608 L 144 656 L 144 704 L 288 736 " transform="matrix(1, 0, 0, -1, -15, 769)"/>
<path fill="none" stroke-width="0.4" stroke-linecap="butt" stroke-linejoin="round" stroke="rgb(0%, 0%, 0%)" stroke-opacity="1" stroke-miterlimit="10" d="M 384 656 L 336 704 L 288 736 " transform="matrix(1, 0, 0, -1, -15, 769)"/>
<path fill-rule="evenodd" fill="rgb(0%, 0%, 0%)" fill-opacity="1" d="M 370.800781 161 C 370.800781 158.601562 367.199219 158.601562 367.199219 161 C 367.199219 163.398438 370.800781 163.398438 370.800781 161 Z M 370.800781 161 "/>
<path fill-rule="evenodd" fill="rgb(0%, 0%, 0%)" fill-opacity="1" d="M 370.800781 113 C 370.800781 110.601562 367.199219 110.601562 367.199219 113 C 367.199219 115.398438 370.800781 115.398438 370.800781 113 Z M 370.800781 113 "/>
<path fill-rule="evenodd" fill="rgb(0%, 0%, 0%)" fill-opacity="1" d="M 322.800781 65 C 322.800781 62.601562 319.199219 62.601562 319.199219 65 C 319.199219 67.398438 322.800781 67.398438 322.800781 65 Z M 322.800781 65 "/>
<path fill-rule="evenodd" fill="rgb(0%, 0%, 0%)" fill-opacity="1" d="M 274.800781 33 C 274.800781 30.601562 271.199219 30.601562 271.199219 33 C 271.199219 35.398438 274.800781 35.398438 274.800781 33 Z M 274.800781 33 "/>
<path fill-rule="evenodd" fill="rgb(0%, 0%, 0%)" fill-opacity="1" d="M 130.800781 65 C 130.800781 62.601562 127.199219 62.601562 127.199219 65 C 127.199219 67.398438 130.800781 67.398438 130.800781 65 Z M 130.800781 65 "/>
<path fill-rule="evenodd" fill="rgb(0%, 0%, 0%)" fill-opacity="1" d="M 130.800781 113 C 130.800781 110.601562 127.199219 110.601562 127.199219 113 C 127.199219 115.398438 130.800781 115.398438 130.800781 113 Z M 130.800781 113 "/>
<path fill-rule="evenodd" fill="rgb(0%, 0%, 0%)" fill-opacity="1" d="M 114.800781 161 C 114.800781 158.601562 111.199219 158.601562 111.199219 161 C 111.199219 163.398438 114.800781 163.398438 114.800781 161 Z M 114.800781 161 "/>
<path fill="none" stroke-width="0.4" stroke-linecap="butt" stroke-linejoin="round" stroke="rgb(0%, 0%, 0%)" stroke-opacity="1" stroke-miterlimit="10" d="M 96 656 L 128 608 " transform="matrix(1, 0, 0, -1, -15, 769)"/>
<path fill-rule="evenodd" fill="rgb(0%, 0%, 0%)" fill-opacity="1" d="M 82.800781 113 C 82.800781 110.601562 79.199219 110.601562 79.199219 113 C 79.199219 115.398438 82.800781 115.398438 82.800781 113 Z M 82.800781 113 "/>
<path fill="none" stroke-width="0.4" stroke-linecap="butt" stroke-linejoin="round" stroke="rgb(0%, 0%, 0%)" stroke-opacity="1" stroke-miterlimit="10" d="M 128 544 L 160 608 " transform="matrix(1, 0, 0, -1, -15, 769)"/>
<path fill-rule="evenodd" fill="rgb(0%, 0%, 0%)" fill-opacity="1" d="M 146.800781 161 C 146.800781 158.601562 143.199219 158.601562 143.199219 161 C 143.199219 163.398438 146.800781 163.398438 146.800781 161 Z M 146.800781 161 "/>
<path fill="none" stroke-width="0.4" stroke-linecap="butt" stroke-linejoin="round" stroke="rgb(0%, 0%, 0%)" stroke-opacity="1" stroke-miterlimit="10" d="M 80 544 L 128 608 " transform="matrix(1, 0, 0, -1, -15, 769)"/>
<path fill="none" stroke-width="0.4" stroke-linecap="butt" stroke-linejoin="round" stroke="rgb(0%, 0%, 0%)" stroke-opacity="1" stroke-miterlimit="10" d="M 432 544 L 432 608 " transform="matrix(1, 0, 0, -1, -15, 769)"/>
<path fill="none" stroke-width="0.4" stroke-linecap="butt" stroke-linejoin="round" stroke="rgb(0%, 0%, 0%)" stroke-opacity="1" stroke-miterlimit="10" d="M 432 608 L 384 656 " transform="matrix(1, 0, 0, -1, -15, 769)"/>
<path fill="none" stroke-width="0.4" stroke-linecap="butt" stroke-linejoin="round" stroke="rgb(0%, 0%, 0%)" stroke-opacity="1" stroke-miterlimit="10" d="M 432 608 L 464 656 " transform="matrix(1, 0, 0, -1, -15, 769)"/>
<path fill="none" stroke-width="0.4" stroke-linecap="butt" stroke-linejoin="round" stroke="rgb(0%, 0%, 0%)" stroke-opacity="1" stroke-miterlimit="10" d="M 432 608 L 448 656 " transform="matrix(1, 0, 0, -1, -15, 769)"/>
<path fill="none" stroke-width="0.4" stroke-linecap="butt" stroke-linejoin="round" stroke="rgb(0%, 0%, 0%)" stroke-opacity="1" stroke-miterlimit="10" d="M 432 608 L 480 544 " transform="matrix(1, 0, 0, -1, -15, 769)"/>
<path fill="none" stroke-width="0.4" stroke-linecap="butt" stroke-linejoin="round" stroke="rgb(0%, 0%, 0%)" stroke-opacity="1" stroke-miterlimit="10" d="M 432 608 L 544 544 " transform="matrix(1, 0, 0, -1, -15, 769)"/>
<path fill="none" stroke-width="0.4" stroke-linecap="butt" stroke-linejoin="round" stroke="rgb(0%, 0%, 0%)" stroke-opacity="1" stroke-miterlimit="10" d="M 224 656 L 256 704 " transform="matrix(1, 0, 0, -1, -15, 769)"/>
<path fill="none" stroke-width="0.4" stroke-linecap="butt" stroke-linejoin="round" stroke="rgb(0%, 0%, 0%)" stroke-opacity="1" stroke-miterlimit="10" d="M 272 656 L 256 704 " transform="matrix(1, 0, 0, -1, -15, 769)"/>
<path fill-rule="evenodd" fill="rgb(0%, 0%, 0%)" fill-opacity="1" d="M 242.800781 65 C 242.800781 62.601562 239.199219 62.601562 239.199219 65 C 239.199219 67.398438 242.800781 67.398438 242.800781 65 Z M 242.800781 65 "/>
<path fill-rule="evenodd" fill="rgb(0%, 0%, 0%)" fill-opacity="1" d="M 434.800781 113 C 434.800781 110.601562 431.199219 110.601562 431.199219 113 C 431.199219 115.398438 434.800781 115.398438 434.800781 113 Z M 434.800781 113 "/>
<path fill-rule="evenodd" fill="rgb(0%, 0%, 0%)" fill-opacity="1" d="M 450.800781 113 C 450.800781 110.601562 447.199219 110.601562 447.199219 113 C 447.199219 115.398438 450.800781 115.398438 450.800781 113 Z M 450.800781 113 "/>
<path fill-rule="evenodd" fill="rgb(0%, 0%, 0%)" fill-opacity="1" d="M 418.800781 161 C 418.800781 158.601562 415.199219 158.601562 415.199219 161 C 415.199219 163.398438 418.800781 163.398438 418.800781 161 Z M 418.800781 161 "/>
<path fill="none" stroke-width="0.4" stroke-linecap="butt" stroke-linejoin="round" stroke="rgb(0%, 0%, 0%)" stroke-opacity="1" stroke-miterlimit="10" d="M 384 608 L 368 544 " transform="matrix(1, 0, 0, -1, -15, 769)"/>
<path fill="none" stroke-width="0.4" stroke-linecap="butt" stroke-linejoin="round" stroke="rgb(0%, 0%, 0%)" stroke-opacity="1" stroke-miterlimit="10" d="M 432 608 L 384 544 " transform="matrix(1, 0, 0, -1, -15, 769)"/>
<path fill="none" stroke-width="0.4" stroke-linecap="butt" stroke-linejoin="round" stroke="rgb(0%, 0%, 0%)" stroke-opacity="1" stroke-miterlimit="10" d="M 176 544 L 160 608 " transform="matrix(1, 0, 0, -1, -15, 769)"/>
<path fill-rule="evenodd" fill="rgb(18%, 54.5%, 34.1%)" fill-opacity="0.3" d="M 185 185 C 182.332031 171.667969 171.667969 166.332031 171.667969 155.667969 C 171.667969 145 182.332031 129 190.332031 115.667969 C 198.332031 102.332031 203.667969 91.667969 209 83.667969 C 214.332031 75.667969 219.667969 70.332031 225 65 C 230.332031 59.667969 235.667969 54.332031 241 54.332031 C 246.332031 54.332031 251.667969 59.667969 254.332031 65 C 257 70.332031 257 75.667969 259.667969 83.667969 C 262.332031 91.667969 267.667969 102.332031 275.667969 110.332031 C 283.667969 118.332031 294.332031 123.667969 302.332031 129 C 310.332031 134.332031 315.667969 139.667969 321 145 C 326.332031 150.332031 331.667969 155.667969 331.667969 161 C 331.667969 166.332031 326.332031 171.667969 323.667969 177 C 321 182.332031 321 187.667969 321 195.667969 C 321 203.667969 321 214.332031 318.332031 222.332031 C 315.667969 230.332031 310.332031 235.667969 299.667969 238.332031 C 289 241 273 241 267.667969 227.667969 C 262.332031 214.332031 267.667969 187.667969 267.667969 171.667969 C 267.667969 155.667969 262.332031 150.332031 259.667969 158.332031 C 257 166.332031 257 187.667969 254.332031 203.667969 C 251.667969 219.667969 246.332031 230.332031 241 235.667969 C 235.667969 241 230.332031 241 225 241 C 219.667969 241 214.332031 241 211.667969 241 C 209 241 209 241 203.667969 241 C 198.332031 241 187.667969 241 185 230.332031 C 182.332031 219.667969 187.667969 198.332031 185 185 Z M 185 185 "/>
<path fill="none" stroke-width="0.4" stroke-linecap="butt" stroke-linejoin="round" stroke="rgb(0%, 0%, 0%)" stroke-opacity="1" stroke-miterlimit="10" d="M 336 704 L 416 656 " transform="matrix(1, 0, 0, -1, -15, 769)"/>
<path fill-rule="evenodd" fill="rgb(0%, 0%, 0%)" fill-opacity="1" d="M 402.800781 113 C 402.800781 110.601562 399.199219 110.601562 399.199219 113 C 399.199219 115.398438 402.800781 115.398438 402.800781 113 Z M 402.800781 113 "/>
<path fill="none" stroke-width="0.4" stroke-linecap="butt" stroke-linejoin="round" stroke="rgb(0%, 0%, 0%)" stroke-opacity="1" stroke-miterlimit="10" d="M 256 704 L 256 656 " transform="matrix(1, 0, 0, -1, -15, 769)"/>
<path fill-rule="evenodd" fill="rgb(0%, 0%, 0%)" fill-opacity="1" d="M 242.800781 113 C 242.800781 110.601562 239.199219 110.601562 239.199219 113 C 239.199219 115.398438 242.800781 115.398438 242.800781 113 Z M 242.800781 113 "/>
</svg>
